<svg xmlns="http://www.w3.org/2000/svg" viewBox="0 0 432.12 432.12">
    <path stroke="black" stroke-width="5" fill="#fdbbdf" d="M0 221.4v-10.6a22.72 22.72 0 0 0 .12-3.65c-.07-12.7 1.81-25.18 4.48-37.55a211.45 211.45 0 0 1 14.42-43.29A217.54 217.54 0 0 1 67.4 58.8a215.57 215.57 0 0 1 93.5-52 211.09 211.09 0 0 1 27.07-5.28c4.91-.62 9.84-1.15 14.8-1.3 6.51-.21 13-.24 19.54-.2a195.16 195.16 0 0 1 43.22 5.4 213 213 0 0 1 40.25 13.73 217.74 217.74 0 0 1 67.58 48.38 214.21 214.21 0 0 1 26.39 34.27c3.66 5.88 7.05 11.91 10.13 18.11a216.14 216.14 0 0 1 15.2 40.22 212.2 212.2 0 0 1 5.54 28.11c.62 4.87 1.13 9.76 1.28 14.68.2 6.51.24 13 .2 19.54a195 195 0 0 1-5.4 43.22 214.32 214.32 0 0 1-33.1 74.12 210.33 210.33 0 0 1-17.17 21.58 218 218 0 0 1-33.14 29.77 223.22 223.22 0 0 1-24.11 15.26 215.74 215.74 0 0 1-75.34 24.39 121.11 121.11 0 0 1-14.57 1.14c-1.75 0-3.51.06-5.27.09a29.61 29.61 0 0 0-4.13.12h-7.68a29.19 29.19 0 0 0-4.1-.12c-13.92.13-27.57-2-41.09-5.06a211.79 211.79 0 0 1-40.72-13.83A215.84 215.84 0 0 1 89.6 391.8a211.58 211.58 0 0 1-18.93-15.31 221.53 221.53 0 0 1-17.83-18.16 217.94 217.94 0 0 1-22.82-31.53 215.41 215.41 0 0 1-28.66-82.87C.73 239.1.14 226.49.13 225.05A22.83 22.83 0 0 0 0 221.4z"/>
    <path fill="#fed0e9" d="M207.84 432.12v-.23c1.44.1 2.91-.27 4.33.23zm16.34-.23v.23h-4.34c1.42-.5 2.89-.13 4.34-.23z"/>
    <path fill="#fee2f2" d="M.23 225.25H0v-3.85c.49 1.26.14 2.57.23 3.85z"/>
    <path fill="#fee3f2" d="M0 207h.22c-.08 1.28.26 2.59-.22 3.85z"/>
    <path fill="#f296c8" d="M415.78 207.8a195.11 195.11 0 0 1-16.09 88c-16.23 37.12-41.38 66.85-75.44 88.73a199.73 199.73 0 0 1-221.51-3.45c-34.07-23.67-58.72-54.89-73.62-93.63a195.56 195.56 0 0 1-12.53-84 144.61 144.61 0 0 0 9.25 22.59 191.84 191.84 0 0 0 18.42 29c4.55 6 9.36 11.7 14.37 17.29q8 8.88 16.55 17.16 6.9 6.64 14.12 12.93 11.43 10 23.47 19.27c8.62 6.66 17.44 13 26.39 19.26 13.25 9.21 26.89 17.83 40.75 26.09q10.65 6.35 21.55 12.26c4.57 2.47 9.15 4.92 13.79 7.26a1.92 1.92 0 0 0 1.89 0c5.84-2.72 11.58-5.63 17.3-8.58 8.34-4.31 16.56-8.84 24.71-13.5q19.69-11.24 38.49-23.84 14-9.35 27.34-19.59 8.89-6.78 17.4-14c3.91-3.34 7.73-6.78 11.55-10.24 5.33-4.84 10.45-9.9 15.43-15.08 3.92-4.08 7.66-8.33 11.33-12.65a218.61 218.61 0 0 0 17.15-23.17 149.38 149.38 0 0 0 17.78-37.84c.07-.1.12-.2.16-.27zM72.4 77.11c23.7-24.27 51.37-41.57 83.41-51.63a197.55 197.55 0 0 1 110.73-2.82c36.77 9.53 68.16 28.34 94.42 55.86-.34-.1-.69-.18-1-.3a87.92 87.92 0 0 0-18.62-4.42 100.8 100.8 0 0 0-17.56-.73 163.66 163.66 0 0 0-37.94 6.6 252.13 252.13 0 0 0-30.57 11.19c-6.6 2.88-13 6.06-19.41 9.4s-12.89 7.06-19 11.09a1.55 1.55 0 0 1-1.94 0c-6.32-4-12.88-7.55-19.52-11a298.22 298.22 0 0 0-37.12-16.09 214.84 214.84 0 0 0-31-8.53 144.46 144.46 0 0 0-14.54-2 119.66 119.66 0 0 0-13.25-.64 94.18 94.18 0 0 0-26.4 3.88c-.14.06-.25.07-.69.14z"/>
    <path fill="#fefefe" d="M317.38 278.42c-.64 1.5-.33 3-.5 4.44-.34 2.8-.36 5.65-.57 8.47-.18 2.5-.44 5-.5 7.52 0 .85-.25 1.29-1.4 1.13-4.81-.69-9.64-1.19-14.46-1.79s-9.72-1.23-14.57-1.85h-.12c-2.81-.42-2.77-.46-2.52-3.22.3-3.33.5-6.67.7-10q.5-8.3.94-16.6c.1-1.79.09-3.59.22-5.38.22-3 .15-6.07.31-9.1.25-4.66.33-9.33.5-14 .21-5.71.3-11.41.49-17.12.15-4.43.16-8.87.18-13.3a1.11 1.11 0 0 1 1.06-1.28l21.25-4.07a1.3 1.3 0 0 1 1.52.61q8 12.12 16 24.21l1.29 1.91c.17-1.35.31-2.36.41-3.37q1-9.33 1.93-18.66c.07-.65.3-.78.91-.71 3.52.41 7 .79 10.57 1.17l9.62 1c2.93.32 5.86.65 8.79 1 .64.07.63.51.61 1-.09 1.83 0 3.68-.31 5.49-.23 1.59-.21 3.18-.35 4.77-.32 3.65-.35 7.33-.56 11-.41 7.05-.54 14.12-.77 21.18-.3 9.28-.13 18.55-.11 27.82 0 2 .08 4.07.18 6.1a1.23 1.23 0 0 1-1 1.47q-12.5 3.78-25 7.63l-.35.09c-2.64.77-2.65.78-4.18-1.59q-5-7.71-9.88-15.44c-.09-.21-.19-.32-.33-.53zM86.57 118.66c10.26 0 19.47.95 28.38 3.91a43.25 43.25 0 0 1 17.89 10.8 39 39 0 0 1 10.66 21.54c1 6.41-.4 12.45-2.91 18.31a64.38 64.38 0 0 1-8.55 14.92 56.67 56.67 0 0 1-15.47 13.59 78.74 78.74 0 0 1-27.29 9.61c-3.85.67-7.73 1.08-11.61 1.43-1 .09-1.33-.23-1.39-1.3-.27-5.3-.48-10.6-.71-15.89s-.47-10.68-.72-16-.49-10.76-.73-16.13-.5-10.6-.72-15.89c-.14-3.51-.35-7-.47-10.52-.19-5.58-.48-11.15-.78-16.73 0-.69.19-.84.77-.88 4.85-.35 9.69-.88 13.65-.77zm185.27 26.53l6.89-10.78 12-18.8c.47-.74.86-.85 1.63-.41q12.2 7 24.43 14c1.42.81 1.42.81.43 2.14q-10.65 14.22-21.25 28.46a1.23 1.23 0 0 0 .12 1.93c4.82 4.85 9.64 9.7 14.36 14.64 3 3.12 6 6.2 9.06 9.25.65.65.64 1-.12 1.55-6 4.51-12.49 8.33-18.88 12.28-1.83 1.13-3.71 2.2-5.5 3.41a1.23 1.23 0 0 1-1.91-.19q-9.86-10.15-19.77-20.25c-.3-.31-.62-.6-1.19-1.14.43 2.46.08 4.62.36 6.78 0 .24.1.47.1.71.1 3.19.16 6.39.29 9.58 0 .91-.2 1.26-1.19 1.27-4.15 0-8.31.08-12.46.26-4.95.22-9.89.42-14.84.47a18.7 18.7 0 0 0-2.62.22c-1.24.19-1.53-.49-1.55-1.51 0-1.32-.1-2.63-.2-3.94-.26-3.5-.33-7-.55-10.52-.36-6-.78-11.93-1.15-17.9-.19-3-.33-6-.5-9-.31-5.17-.66-10.34-.92-15.52-.14-2.79-.29-5.57-.49-8.36-.25-3.42-.32-6.85-.54-10.28-.07-1.09.18-1.48 1.39-1.56 6.12-.41 12.25-.84 18.38-1.18 4.58-.25 9.15-.6 13.72-.95 1.06-.08 1.34.27 1.37 1.33.1 5.07.16 10.14.52 15.2.22 2.89-.14 5.8.58 8.81zm-84.53 150.38a37 37 0 0 1-18.59-4.07 34.51 34.51 0 0 1-13.6-13.32 39.64 39.64 0 0 1-5.28-16.38c-1.15-10.95.16-21.52 5.51-31.35a44.36 44.36 0 0 1 17.78-18 39.34 39.34 0 0 1 13.71-4.83c9.63-1.33 18.51.39 26.09 6.93 6.5 5.61 10.45 12.81 12.91 20.9a56.45 56.45 0 0 1 2.17 19.06 45.84 45.84 0 0 1-4.76 19.29c-5.73 11.08-14.51 18.38-26.88 21a33.49 33.49 0 0 1-9.06.77zm-38.77-135.45a49 49 0 0 1 5.72-24.51 44.1 44.1 0 0 1 17.88-18.18 39.3 39.3 0 0 1 13.7-4.86c9.63-1.33 18.51.39 26.09 6.94 6.5 5.62 10.45 12.82 12.91 20.91a56.44 56.44 0 0 1 2.16 19.06 45.83 45.83 0 0 1-4.73 19.26c-5.73 11.08-14.49 18.5-26.89 20.95-8.3 1.64-16.6 1.43-24.6-1.8a33.7 33.7 0 0 1-16.63-14.75 42 42 0 0 1-5.42-17.58c-.17-1.93-.08-3.84-.19-5.44zM69.35 261.93a49.24 49.24 0 0 1 5.06-23.44 44.54 44.54 0 0 1 23-21.55 36.69 36.69 0 0 1 15.58-3.21 31.19 31.19 0 0 1 18.32 6.45 38.06 38.06 0 0 1 10.55 12.56c.44.81.29 1.13-.51 1.51q-13.23 6.38-26.43 12.83c-.72.35-1.13.36-1.59-.46a6.14 6.14 0 0 0-5.84-3.29 6.67 6.67 0 0 0-6.34 4.67 9.73 9.73 0 0 0 1.41 9.53c1.93 2.7 5.65 2.95 8.59.56a1.32 1.32 0 0 1 1.77-.16q9.77 5.6 19.57 11.16c3.78 2.15 7.55 4.33 11.36 6.45.7.39.89.73.59 1.48-3.65 9.23-9.61 16.43-18.56 20.95a40.9 40.9 0 0 1-15.39 4.11 42.34 42.34 0 0 1-17.11-1.92A32.49 32.49 0 0 1 78.74 290a39.85 39.85 0 0 1-8.9-20.83 48.66 48.66 0 0 1-.49-7.24zm286.22-142.76c3 0 2.88 0 3 2.75.27 4.79 0 9.59.26 14.38.21 3.88 0 7.75.21 11.62.25 4.83 0 9.67.27 14.5.22 4.44 0 8.87.21 13.3.39 7.67.09 15.35.23 23 0 1.11.24 2.22.21 3.34 0 .75-.27 1.08-1.06 1.09-2.83.05-5.67.19-8.5.22-3.87 0-7.75.17-11.62.33s-7.59 0-11.36.4c-1 .11-1.36-.18-1.31-1.23.4-8.3.37-16.61.57-24.92.13-5.56.21-11.11.08-16.66-.08-3.39 0-6.79-.18-10.18-.22-5.62-.45-11.24-.73-16.86-.19-4-.47-8-.71-11.94 0-.83-.58-1.77-.07-2.45s1.51-.13 2.28-.36a5 5 0 0 1 1.43-.11h22.8a32.73 32.73 0 0 1 3.99-.22zm-89.55 95.52c3.5 0 3.38 0 3.54 2.76.27 4.79 0 9.6.27 14.38.2 3.8 0 7.59.2 11.38.24 4.91 0 9.83.28 14.74.21 4.4 0 8.79.21 13.18.39 7.71.1 15.43.23 23.14 0 1.11.24 2.22.21 3.34 0 .76-.3 1.06-1.07 1.07-2.91.05-5.83.18-8.74.22q-5.69.08-11.38.33c-3.83.17-7.67 0-11.48.4-.88.1-1.22-.21-1.17-1.13.39-8.34.37-16.69.57-25 .13-5.56.2-11.11.08-16.66-.07-3.27 0-6.55-.18-9.82-.23-5.78-.46-11.56-.73-17.34-.19-3.86-.49-7.72-.68-11.58 0-.93-.79-2.2 0-2.71s2.15-.41 3.25-.42h17.88a79.59 79.59 0 0 0 8.71-.28z"/>
    <path fill="#fef9fc" d="M343.44 269.88c3.32.64 6.64 1.29 10 1.91.54.1.6.42.6.86v7.43a1 1 0 0 1-.88 1.07 6 6 0 0 1-2.13.24c-2.71-.34-5.44-.09-8.16-.2-1.73-.07-3.49.32-5.2.16-2-.2-4-.08-5.92-.08a28.5 28.5 0 0 0-3.76.06c-2.28.3-4.47.13-5.64-2.42-.41-.9-1.13-1.64-1.63-2.5a3.94 3.94 0 0 0-6.61-.28 6 6 0 0 0-.86 3.3c0 1.5-.29 1.91-1.74 1.94a19.64 19.64 0 0 1-4.77-.14 6.12 6.12 0 0 0-1.67 0 52 52 0 0 1-8 0c-.78-.07-1.58.2-2.37.17-2-.08-4-.17-6-.06-.91.05-1.11-.76-1.09-1.55.06-2.83.16-5.65.46-8.46v-.72a2.55 2.55 0 0 1 2-.48h50.85c.82-.03 1.72.4 2.52-.25z"/>
    <path fill="#fef3f9" d="M343.44 269.88c-.29.9-1.06.71-1.7.71H288c-.16-2.12.37-4.21.24-6.32 0-.7.3-.92.94-.88 1.67.1 3.34.15 5 .29 2.29.19 4.58.44 6.87.67 3.63.37 7.26.74 10.89 1.14q4.38.48 8.75 1c3.66.45 7.32.93 11 1.54 3.9.69 7.83 1.25 11.75 1.85z"/>
    <path fill="#fef7fb" d="M104.32 187.8H82.73a7 7 0 0 1-2.6 0c-.75-.28-1.21-.64-1.19-1.54.09-3.34-.47-2.56 2.53-3.35q8.44-2.23 17-3.92c.76-.15 1.12-.05 1.51.79 1.1 2.42 3.35 2.83 5.86 1.57a7.5 7.5 0 0 0 3.09-2.6c1.13-1.84 2.83-2.23 4.74-2.48 5.79-.76 11.57-1.59 17.36-2.39 1.34-.18 2.68-.33 4-.47.35 0 .8-.17 1 .11s-.11.74-.27 1.07a58.46 58.46 0 0 1-8 12.61 1.9 1.9 0 0 1-1.71.59z"/>
    <path fill="#febce0" d="M111.12 161.91c-.28 5.24-1.49 10.17-5 14.3a12 12 0 0 1-1.89 1.63c-.64.5-.83.13-.92-.43-.2-1.18-.2-2.38-.3-3.57-.41-4.48-.66-9-1-13.47-.27-3.37-.61-6.74-.92-10.11-.14-1.51 0-1.66 1.44-1.13a12.17 12.17 0 0 1 8.4 10.39 10 10 0 0 1 .19 2.39z"/>
    <path fill="#fef6fa" d="M303.84 175.08c1.89 1.94 3.84 3.83 5.64 5.85 1.14 1.29 2.41 2.44 3.56 3.71.2.22.6.38.43.77a.88.88 0 0 1-.9.46l-13.67-.07c-.51 0-1 .08-1.54.08h-13.74a3.49 3.49 0 0 1-2.43-1.13c-1.88-1.91-3.78-3.79-5.68-5.68a4.3 4.3 0 0 0-4.3-1.36 3.27 3.27 0 0 0-2.28 1.92 6.31 6.31 0 0 0-.48 4.21 6.48 6.48 0 0 1 .1 1.31c0 .57-.27.78-.81.77-5.63-.1-11.26.09-16.89-.09a38 38 0 0 0-5.32 0c-1.58.17-2.09-.29-2.19-1.84-.21-3.37-.47-6.74-.71-10.11 1.34 1.35 3.06 1.2 4.73 1.2h26.26c4.36 0 8.72.06 13.07 0 5.31-.07 10.62.1 15.94 0a8.86 8.86 0 0 0 1.21 0z"/>
    <path fill="#fef1f8" d="M303.84 175.08c-1.1.83-2.39.39-3.57.44-3 .12-6.07 0-9.1 0h-44.65c-1 0-1.94-.44-3-.14-.34.1-.65-.23-.68-.67s0-.65-.25-.89a22.08 22.08 0 0 0-.24-3.81c-.06-.71.21-1 1-1q7.48 0 14.95.47c2.15.13 4.31.15 6.45.2 4 .11 8 .43 11.94.58 4.57.17 9.13.57 13.69.94 3.33.26 6.65.65 10 .92a1.82 1.82 0 0 1 1.48.86 8.76 8.76 0 0 0 1.98 2.1z"/>
    <path fill="#fef8fb" d="M220.84 269.64a30.79 30.79 0 0 1-5.87 9.76c-.4.48-1 .32-1.46.32h-51.75a1.42 1.42 0 0 1-1.29-.47 30.44 30.44 0 0 1-4.95-9.61 1.74 1.74 0 0 1 1.54-.47c3.87.07 7.75-.18 11.62.14.83.07 1.66-.16 2.51-.16h47.58c.71.01 1.47-.14 2.07.49z"/>
    <path fill="#fef3f9" d="M220.84 269.64h-65.32a28 28 0 0 1-1.36-4.46c-.28-1.19 0-1.46 1.23-1.55 4.13-.29 8.25-.63 12.38-.93 1.35-.1 2.71-.16 4.05-.21 3.9-.15 7.8-.43 11.7-.57 4.42-.16 8.85-.3 13.27-.5 2.48-.12 4.95-.05 7.42-.18 5.95-.31 11.9-.19 17.85-.26 1.15 0 1.43.27 1.16 1.41a38.79 38.79 0 0 1-2.38 7.25z"/>
    <path fill="#febce0" d="M182.38 244.47c0-4.13 3.44-7 7-5.82 3.13 1 4.84 5.08 3.49 8.32a5.36 5.36 0 0 1-7.43 2.93 5.68 5.68 0 0 1-3.06-5.43z"/>
    <path fill="#fef3f9" d="M156.24 178.92c-.85-2-1.7-4-2.37-6-.34-1 .1-1.37 1-1.42 3.81-.24 7.62-.47 11.43-.73 4.56-.3 9.12-.64 13.69-.93 1.79-.11 3.59-.17 5.37-.2 3.59-.06 7.18-.23 10.76-.37s7.43.06 11.13-.22c4.55-.34 9.1-.06 13.65-.21.74 0 1 .11.75.93a36.74 36.74 0 0 1-3 7.52 4.85 4.85 0 0 0-.71 1.64 2.43 2.43 0 0 1-1.47.41c-4.62-.34-9.24-.13-13.86-.16h-18.3c-5.23 0-10.45-.09-15.68 0-3.66.07-7.32 0-11 0a2.35 2.35 0 0 1-1.39-.26z"/>
    <path fill="#fef9fc" d="M156.24 178.92a11 11 0 0 1 3.67-.13c1.53.1 3.07-.07 4.61-.08h15.77c5.53 0 11.05-.13 16.57 0 3.21.11 6.43 0 9.64 0a69.2 69.2 0 0 0 8-.07c1.16-.11 2.28.39 3.45.23a41.23 41.23 0 0 1-5.88 7.66 7.66 7.66 0 0 1-6.43 3c-3.9-.2-7.82-.07-11.74 0-3 .07-6-.07-9.06-.08h-14.12c-1.66 0-3.31.21-5 .05a3.76 3.76 0 0 1-2.5-1.1 33.53 33.53 0 0 1-6.98-9.48z"/>
    <path fill="#febce0" d="M181.42 149.4c0-4.12 3.48-7 7-5.78 3.08 1 4.77 5 3.5 8.22a5.37 5.37 0 0 1-7.38 3.06 5.68 5.68 0 0 1-3.12-5.5z"/>
    <path fill="#fef8fb" d="M136.43 279.96c-6.06 0-11.92.09-17.77 0-3-.06-6.09-.16-9.11-.08-7 .2-14.06 0-21.09.08a61.26 61.26 0 0 1-6.53-.14c-1.1-.11-2.29.2-3.44.17a3 3 0 0 1-2.82-2.87c0-.56.45-.46.76-.56 4.66-1.54 9.45-2.62 14.23-3.69 7.34-1.66 14.72-3.08 22.17-4.18 2.32-.34 4.64-.69 6.94-1.15 1.94-.39 3.39.61 4.9 1.47l11.62 6.65c.89.51 1.8 1 2.64 1.6.31.22 1 .3.79.88s-.35 1.35-1.13 1.59a5.68 5.68 0 0 1-2.16.23zm194.05-98.16c0-1.64.06-3.28 0-4.91-.06-1.08.35-1.29 1.32-1.13 3.57.6 7.15 1.11 10.71 1.75 4.07.73 8.12 1.58 12.19 2.33.88.16 1.32.48 1.27 1.47-.08 1.79-.09 3.6 0 5.39.05 1.1-.37 1.34-1.38 1.32-3.38-.06-6.77-.16-10.14 0-2.48.14-5 0-7.44.09-1.88.05-3.82-.1-5.73-.13-.67 0-.78-.38-.78-.93-.01-1.7-.02-3.45-.02-5.25z"/>
    <path fill="#fef7fb" d="M266.64 267.96c-.14 3.36.16 6.7.26 10.05 0 1.18-.4 1.54-1.53 1.48-3.54-.19-7.1-.07-10.64-.12-3.28 0-6.59.07-9.88.07-3.9 0-3.57-.37-3.27-4.06.2-2.48 0-5 .11-7.43a4.64 4.64 0 0 1 3.23-.55c3.07.15 6.14 0 9.2 0 3.7 0 7.4-.14 11.09.07a2 2 0 0 1 1.43.49z"/>
    <path fill="#fef0f8" d="M266.64 267.96c-8.32-.24-16.64 0-25 0v-5.75c0-.72.25-1 1-1 4.83-.15 9.64.19 14.46.34a76.29 76.29 0 0 1 8.46.36c.81.11 1.12.29 1.09 1.13-.05 1.65-.01 3.28-.01 4.92z"/>
</svg>
